<svg width="40" height="40" viewBox="0 0 40 40" fill="none" xmlns="http://www.w3.org/2000/svg">
  <!-- Background circle -->
  <circle cx="20" cy="20" r="20" fill="#0F4C81"/>
  
  <!-- Tech circuit pattern -->
  <g fill="#00A6A6">
    <!-- Central processor -->
    <rect x="16" y="16" width="8" height="8" rx="1" fill="#FFFFFF"/>
    <rect x="17" y="17" width="6" height="6" rx="0.5" fill="#0F4C81"/>
    
    <!-- Circuit connections -->
    <rect x="12" y="19" width="4" height="2" rx="1"/>
    <rect x="24" y="19" width="4" height="2" rx="1"/>
    <rect x="19" y="12" width="2" height="4" rx="1"/>
    <rect x="19" y="24" width="2" height="4" rx="1"/>
    
    <!-- Corner nodes -->
    <circle cx="8" cy="8" r="2" fill="#D4AF37"/>
    <circle cx="32" cy="8" r="2"/>
    <circle cx="8" cy="32" r="2"/>
    <circle cx="32" cy="32" r="2" fill="#D4AF37"/>
    
    <!-- Connection lines -->
    <path d="M10 8 L14 19" stroke="#00A6A6" stroke-width="1.5" stroke-linecap="round"/>
    <path d="M30 8 L26 19" stroke="#00A6A6" stroke-width="1.5" stroke-linecap="round"/>
    <path d="M8 10 L19 14" stroke="#00A6A6" stroke-width="1.5" stroke-linecap="round"/>
    <path d="M8 30 L19 26" stroke="#00A6A6" stroke-width="1.5" stroke-linecap="round"/>
    <path d="M32 10 L26 19" stroke="#00A6A6" stroke-width="1.5" stroke-linecap="round"/>
    <path d="M32 30 L26 19" stroke="#00A6A6" stroke-width="1.5" stroke-linecap="round"/>
    <path d="M10 32 L19 26" stroke="#00A6A6" stroke-width="1.5" stroke-linecap="round"/>
    <path d="M30 32 L26 19" stroke="#00A6A6" stroke-width="1.5" stroke-linecap="round"/>
  </g>
  
  <!-- Company initial -->
  <text x="20" y="26" font-family="Arial, sans-serif" font-size="12" font-weight="bold" text-anchor="middle" fill="#FFFFFF">S</text>
</svg>
