<svg width="200" height="200" viewBox="0 0 200 200" xmlns="http://www.w3.org/2000/svg">
  <!-- Background circle with gradient -->
  <defs>
    <linearGradient id="bgGradient" x1="0%" y1="0%" x2="100%" y2="100%">
      <stop offset="0%" stop-color="#0F4C81" />
      <stop offset="100%" stop-color="#00A6A6" />
    </linearGradient>
    <linearGradient id="iconGradient" x1="0%" y1="0%" x2="100%" y2="100%">
      <stop offset="0%" stop-color="#FFFFFF" />
      <stop offset="100%" stop-color="#E0F2FE" />
    </linearGradient>
  </defs>
  
  <!-- Main circle background -->
  <circle cx="100" cy="100" r="90" fill="url(#bgGradient)" />
  
  <!-- Abstract circuit/network design -->
  <g stroke="url(#iconGradient)" stroke-width="4" stroke-linecap="round" fill="none">
    <!-- Central node -->
    <circle cx="100" cy="100" r="12" fill="url(#iconGradient)" />
    
    <!-- Connecting lines to outer nodes -->
    <line x1="100" y1="100" x2="100" y2="40" />
    <line x1="100" y1="100" x2="160" y2="70" />
    <line x1="100" y1="100" x2="160" y2="130" />
    <line x1="100" y1="100" x2="100" y2="160" />
    <line x1="100" y1="100" x2="40" y2="130" />
    <line x1="100" y1="100" x2="40" y2="70" />
    
    <!-- Outer nodes -->
    <circle cx="100" cy="40" r="8" fill="url(#iconGradient)" />
    <circle cx="160" cy="70" r="8" fill="url(#iconGradient)" />
    <circle cx="160" cy="130" r="8" fill="url(#iconGradient)" />
    <circle cx="100" cy="160" r="8" fill="url(#iconGradient)" />
    <circle cx="40" cy="130" r="8" fill="url(#iconGradient)" />
    <circle cx="40" cy="70" r="8" fill="url(#iconGradient)" />
    
    <!-- Data flow indicators -->
    <circle cx="100" cy="70" r="4" fill="url(#iconGradient)" />
    <circle cx="130" cy="85" r="4" fill="url(#iconGradient)" />
    <circle cx="130" cy="115" r="4" fill="url(#iconGradient)" />
    <circle cx="100" cy="130" r="4" fill="url(#iconGradient)" />
    <circle cx="70" cy="115" r="4" fill="url(#iconGradient)" />
    <circle cx="70" cy="85" r="4" fill="url(#iconGradient)" />
  </g>
  
  <!-- Subtle wave element representing "digital serenity" -->
  <path d="M60 170 Q 100 180 140 170" stroke="url(#iconGradient)" stroke-width="2" fill="none" stroke-opacity="0.7" />
  <path d="M65 175 Q 100 185 135 175" stroke="url(#iconGradient)" stroke-width="2" fill="none" stroke-opacity="0.5" />
</svg>