<svg width="256" height="256" viewBox="0 0 256 256" fill="none" xmlns="http://www.w3.org/2000/svg" role="img" aria-label="Sanjose Computer Services">
  <defs>
    <linearGradient id="g" x1="0" y1="0" x2="1" y2="1">
      <stop offset="0%" stop-color="#0F4C81"/>
      <stop offset="100%" stop-color="#00A6A6"/>
    </linearGradient>
  </defs>
  <rect x="8" y="8" width="240" height="240" rx="32" fill="url(#g)"/>
  <!-- Monogram SCS -->
  <path d="M76 116c0-22 18-40 40-40h24c8 0 14-6 14-14s-6-14-14-14h-34" stroke="#FFFFFF" stroke-width="12" stroke-linecap="round"/>
  <path d="M180 140c0 22-18 40-40 40h-24c-8 0-14 6-14 14s6 14 14 14h34" stroke="#FFFFFF" stroke-width="12" stroke-linecap="round"/>
  <path d="M64 160c0-18 14-32 32-32h64c18 0 32-14 32-32" stroke="#FFFFFF" stroke-width="12" stroke-linecap="round"/>
  <text x="128" y="222" text-anchor="middle" font-family="Inter, Segoe UI, Arial, sans-serif" font-size="20" fill="#FFFFFF" opacity="0.9">SANJOSE</text>
</svg>

